<svg width="150" height="250" fill="none" xmlns="http://www.w3.org/2000/svg">
  <g clip-path="url(#a)">
    <path
      d="M50.452 16.933c2.722-1.375 5.353-.104 6.046 2.959.197.863-.061 1.69-.69 2.294-1.03.988-2.31 1.445-3.667.868-.896-.38-1.737-.998-2.458-1.663-1.582-1.462-1.2-3.464.769-4.458ZM60.246 11.248c-.926-1.615-.13-4.157 1.604-5.13 1.426-.798 3.92.429 4.842 2.385.61 1.291-.217 3.16-1.842 4.168-1.643 1.015-3.544.43-4.604-1.423ZM65.684 21.555c.151.394.463.994.611 1.635.365 1.571-1.04 3.321-2.755 3.505-1.54.167-2.89-1.067-2.974-2.686-.065-1.216.284-2.286.962-3.286.78-1.154 2.521-1.269 3.423-.179.209.257.39.54.733 1.01ZM101.572 49.528c-.109-.315-.26-.62-.317-.943-.33-1.89.357-3.304 1.762-3.677 1.634-.437 3.268.504 3.947 2.268.514 1.34-.301 2.812-1.97 3.556-1.268.567-2.849.01-3.422-1.204ZM45.693 45.298c1.339-.712 3.197.019 4.157 1.637.737 1.245.143 3.05-1.245 3.781-1.61.847-3.389.33-4.237-1.232-.857-1.578-.306-3.32 1.325-4.186ZM111.477 90.001c.924-.377 1.872-.459 2.79.108 1.182.73 1.832 2.158 1.51 3.346-.288 1.057-1.097 1.578-2.067 1.907-.155.05-.322.062-.483.092-1.822.325-3.193-.335-3.581-1.732-.352-1.268.481-2.979 1.831-3.72ZM107.893 107.079c1.431-.998 3.286-.613 4.273.888.898 1.368.614 3.101-.642 3.912-1.458.94-3.75.744-4.48-.388-.829-1.287-.394-3.545.849-4.412ZM65.724 85.124c1.235-.76 3.036-.205 3.77 1.16.65 1.213.138 2.995-1.118 3.879-1.05.74-3.227.331-3.997-.75-.763-1.074-.02-3.45 1.345-4.289ZM93.014 101.188c-.757-1.393-.213-3.01 1.263-3.754 1.297-.654 3.128-.129 3.91 1.12.656 1.054-.038 3.081-1.333 3.886-1.172.727-3.106.097-3.84-1.252ZM70.76 77.143c-.564-.93-.55-2.015.038-2.802.87-1.162 2.172-1.664 3.487-1.342 1.054.26 1.911 1.091 2.01 1.964.098.885-.163 1.67-.852 2.222a6.975 6.975 0 0 1-1.692 1.012c-1.15.48-2.335.026-2.99-1.054ZM147.515 66.341c-.591-1.171-.152-2.86.902-3.473.527-.32 1.053-.451 1.583-.41v5.486c-.999-.146-2.075-.785-2.485-1.603Z"
      fill="#DF4047" />
    <path
      d="M141.482 160.578c-.685.345-1.068.862-1.268 1.6a281.56 281.56 0 0 1-1.679 5.887c-1.966 6.676-4.86 12.94-8.386 18.923-1.853 3.145-4.213 5.915-6.507 8.733a239.093 239.093 0 0 1-4.105 4.882c-.635.742-1.252 1.48-1.703 2.363-.381.751-1.013.896-1.776.549-.668-.305-.974-1.044-.751-1.789.209-.702.688-1.225 1.143-1.77 1.879-2.241 3.679-4.551 5.636-6.72 4.634-5.14 7.898-11.098 10.707-17.356 1.787-3.98 3.126-8.106 4.233-12.315a.648.648 0 0 0-.1-.501c-.057-.07-.313-.044-.445.015-1.936.879-3.854 1.796-5.799 2.654-3.646 1.612-7.269 3.283-10.968 4.762-4.768 1.906-9.598 3.658-14.407 5.455-2.24.837-4.5 1.618-6.746 2.438-.914.333-1.964.523-2.678 1.11-.747.615-.452 1.833-.835 2.728-.592 1.384-1.094 2.811-1.748 4.165-1.896 3.915-4.224 7.592-6.382 11.361-.314.549-.67 1.037-1.29 1.284-.49.195-1.116.075-1.453-.325-.312-.371-.397-.808-.204-1.238.214-.482.5-.934.764-1.394 1.814-3.15 3.652-6.287 5.436-9.453.914-1.621 1.755-3.285 2.251-5.095.114-.414-.175-.757-.544-.626-2.003.714-4.027 1.376-5.994 2.176-3.609 1.471-7.223 2.92-10.735 4.632-2.072 1.01-4.083 2.139-6.173 3.108-1.527.706-2.57 1.843-3.322 3.307-.895 1.739-1.682 3.526-2.217 5.408-1.164 4.096-2.28 8.206-3.425 12.307-.19.679-.397 1.358-.663 2.009-.19.463-.863.733-1.347.641-.464-.088-.987-.643-.959-1.139a9.83 9.83 0 0 1 .267-1.831c1.295-5.164 2.658-10.309 4.431-15.337.056-.16.056-.34.082-.51-.159.006-.33-.027-.471.027-.247.095-.48.23-.706.367-.683.415-1.385.802-2.035 1.263-3.468 2.459-7.035 4.78-10.352 7.448-.457.368-.95.695-1.441 1.021l-.08.052c-1.046.695-1.874 1.588-2.657 2.572-3.659 4.6-6.517 9.71-9.52 14.73-1.593 2.662-3.181 5.33-4.856 7.939-1.293 2.015-2.783 3.885-4.524 5.55-1.369 1.308-2.94 2.273-4.675 2.99-1.08.446-2.215.643-3.383.514-2.837-.312-4.921-1.624-6.011-5.527-.436-1.561-.26-3.167.162-4.735.988-3.69 3.004-6.795 5.556-9.564 1.985-2.153 4.282-3.955 6.616-5.731 3.197-2.434 6.672-4.384 10.223-6.196 2.914-1.487 5.916-2.843 9.079-3.739 1.406-.399 2.598-1.112 3.746-1.953 2.287-1.673 4.552-3.375 6.864-5.012a369.237 369.237 0 0 1 8.099-5.577c1.326-.886 2.713-1.687 4.108-2.462 3.1-1.72 6.096-3.636 9.427-4.917.657-.253 1.264-.64 1.889-.975.071-.039.173-.158.158-.2-.053-.136-.128-.329-.24-.365-3.22-1.025-6.509-1.763-9.867-2.132-4.694-.516-9.38-.378-14.048.367-4.9.782-9.791 1.606-14.62 2.76-.337.08-.707.116-1.05.071-.475-.06-.763-.412-.935-.844-.18-.455-.12-.912.257-1.207.41-.32.876-.615 1.365-.78a15.575 15.575 0 0 1 2.32-.571c4.887-.847 9.743-1.88 14.677-2.455a52.82 52.82 0 0 1 19.007 1.208c2.324.577 4.665 1.085 6.986 1.671.724.182 1.374.157 2.068-.113 1.568-.61 3.154-1.168 4.734-1.745 5.986-2.192 11.977-4.373 17.957-6.579 1.577-.582 3.128-1.235 4.684-1.873.145-.06.239-.247.356-.376-.155-.069-.305-.184-.465-.199-4.596-.408-8.762-2.074-12.803-4.202-2.744-1.446-5.585-2.703-8.382-4.047a15.04 15.04 0 0 1-.944-.487c-.417-.24-.636-.599-.592-1.095.047-.52.478-1.047.995-1.093.43-.038.901-.054 1.302.08.837.279 1.662.623 2.456 1.011 2.708 1.325 5.436 2.617 8.093 4.039 3.999 2.142 8.263 3.144 12.764 3.278.886.026 1.797-.061 2.653.116 1.285.267 2.465.051 3.61-.456 5.426-2.407 10.938-4.645 16.234-7.308 4.907-2.467 9.611-5.336 14.387-8.062v3.467c-2.773 1.755-5.576 3.461-8.516 4.938Z"
      fill="#467156" />
    <path
      d="M148.958 149.623c-.447-.125-.866.021-1.291.173-2.263.804-4.508 1.636-6.283 3.352-.428.414-.923.48-1.472.36-.763-.168-1.144-.984-.76-1.648a5.056 5.056 0 0 1 1.626-1.725c.518-.34 1.044-.666 1.561-1.007.069-.046.107-.14.16-.212-.13-.095-.255-.264-.39-.274a616.436 616.436 0 0 0-6.371-.366c-.442-.024-.888.004-1.327-.037-.48-.046-.81-.33-.976-.782-.186-.504-.018-1.13.422-1.419.291-.191.616-.366.95-.443.319-.075.667-.054 1.002-.033l.054.003c3.009.186 6.018.361 9.025.58 1.397.102 1.492.084 1.08-1.138-.467-1.388-.434-2.791-.348-4.207.021-.347.118-.706.26-1.024.184-.415.472-.742 1.007-.707.482.031.888.225 1.076.65.171.391.274.84.291 1.269.038.972-.015 1.937.176 2.91.217 1.113.773 1.918 1.568 2.52v3.502c-.346-.101-.693-.2-1.04-.297ZM116.251 120.994c3.548-1.974 7.418-2.857 11.408-3.241 6.745-.648 13.449-.273 20.09 1.071.751.152 1.501.306 2.251.463v9.72c-4.728.965-9.458 1.922-14.191 2.859-3.647.723-7.341 1.181-11.05 1.457-2.301.172-4.599.116-6.886-.272-1.244-.211-2.387-.662-3.477-1.266-.949-.527-1.684-1.282-2.243-2.212-1.144-1.905-1.018-3.893.324-5.702.986-1.332 2.388-2.087 3.774-2.877ZM106.905 210.608a9.321 9.321 0 0 1-.517-5.406c.384-1.945 1.2-3.704 2.293-5.345 1.231-1.848 2.636-3.562 4.161-5.173 4.876-5.149 9.995-10.034 15.538-14.474 1.238-.991 2.539-1.934 3.555-3.189.213-.264.516-.475.817-.64.551-.301 1.389.052 1.52.648.357 1.645.624 3.274.141 4.971-1.906 6.669-4.144 13.209-7.57 19.274-1.886 3.336-4.205 6.355-7.155 8.843-1.567 1.32-3.275 2.44-5.184 3.202-2.939 1.175-6.151.03-7.599-2.711ZM21.868 178.963c2.33-1.037 4.883-2.019 7.613-2.5 5.01-.881 10.05-.917 15.107-.587 4.073.264 8.131.644 12.138 1.446.864.173 1.743.377 2.546.728 1.215.531 1.308 2.074.208 2.787-.518.337-1.07.65-1.649.86-8.322 3.035-16.744 5.75-25.394 7.708-2.683.608-5.403.978-8.161 1.033-1.25.024-2.483-.053-3.685-.414-.424-.127-.858-.245-1.254-.438-2.4-1.171-3.97-3.888-1.819-6.864 1.1-1.516 2.55-2.703 4.35-3.759ZM72.517 150.074c1.943-1.12 4.015-1.295 6.174-.856 2.389.486 4.529 1.547 6.507 2.926 2.4 1.672 4.777 3.374 7.114 5.132 3.044 2.289 6.037 4.646 9.053 6.972.631.486 1.279.943 1.685 1.669.481.861.208 1.766-.664 2.253-.663.371-1.366.39-2.067.316-2.468-.258-4.945-.474-7.396-.854a76.6 76.6 0 0 1-11.643-2.743c-2.117-.677-4.163-1.53-6.099-2.622-1.311-.741-2.578-1.565-3.616-2.683-.36-.388-.75-.761-1.043-1.196-1.864-2.784-1.774-6.301 1.995-8.314ZM51.648 231.288c-1.262-2.252-1.452-4.698-1.28-7.202.225-3.3 1.156-6.441 2.354-9.494 1.749-4.458 4.068-8.632 6.59-12.695a7.016 7.016 0 0 1 1.154-1.436c.774-.719 2.062-.361 2.365.651.147.495.215 1.046.173 1.56-.588 7.225-.775 14.48-1.629 21.685a23.238 23.238 0 0 1-1.059 4.647c-.423 1.262-1.011 2.437-1.914 3.453-2.09 2.347-4.693 2.164-6.358-.479-.144-.224-.266-.461-.396-.69ZM138.574 188.881c-1.047-1.529-1.438-3.172-1.783-4.812-1.121-5.337-1.014-10.72-.482-16.109.052-.519.129-1.111.411-1.518.589-.848.767-1.742.769-2.738 0-.316.206-.674.412-.941.558-.72 1.803-.666 2.29.099.233.365.41.784.522 1.202.688 2.559 1.35 5.125 2.019 7.689.826 3.162 1.656 6.323 2.472 9.486.486 1.885.9 3.781.974 5.738.044 1.166-.076 2.302-.455 3.4-.674 1.955-2.418 2.656-4.242 1.68a6.205 6.205 0 0 1-2.311-2.137c-.242-.372-.442-.767-.596-1.039ZM73.793 178.161c.914 1.65.205 3.007-1.248 2.973-.964-.023-1.96-.14-2.877-.425-6.505-2.017-12.444-5.073-17.47-9.745-.711-.66-1.357-1.395-1.995-2.128-.602-.691-.872-1.53-.915-2.443-.064-1.385.69-2.419 2.01-2.741 1.151-.281 2.298-.243 3.385.233 1.133.497 2.294.974 3.337 1.627 5.256 3.298 10.262 6.929 14.64 11.363.493.499.931 1.054 1.133 1.286Z"
      fill="#467156" />
    <path
      d="M106.063 153.997c-2.287 1.266-4.248 1.035-6.09-.133-2.021-1.282-2.605-3.941-1.34-6.096.765-1.305 1.802-2.422 3.12-3.207 1.967-1.172 4.953-.422 6.411 1.532 1.186 1.59 1.233 3.287.464 5.021-.588 1.328-1.539 2.374-2.565 2.883ZM145.503 103.494c-2.565 1.643-6.367.249-7.488-1.873-.568-1.075-.792-2.167-.453-3.31.552-1.864 1.589-3.24 3.583-3.894 1.994-.654 3.791-.623 5.518.615 1.85 1.326 2.433 3.32 1.493 5.353-.599 1.296-1.39 2.459-2.653 3.109ZM10.11 200.754c1.589-.987 2.93-1.204 4.365-.66.495.188 1.006.335 1.498.531 1.472.585 2.408 1.939 2.419 3.47.017 2.509-2.342 5.407-4.81 5.999-1.6.386-2.999-.017-4.22-.998-3.183-2.56-2.116-5.74-.017-7.768.315-.304.704-.53.765-.574ZM129.941 142.745c.178-.075.493-.247.83-.34 2.632-.725 6.229 1.469 6.447 4.4.169 2.253-1.623 4.736-3.899 5.417-1.964.586-3.78.361-5.004-1.366-2.103-2.969-1.353-6.32 1.626-8.111ZM83.189 194.98c1.96-1.071 4.557-.659 6.17 1.111 1.026 1.125 1.4 2.425.97 3.931-.585 2.043-1.937 3.368-3.898 4.021-1.34.448-2.628.042-3.8-.69-3.297-2.056-3.317-5.892-.046-8.029.147-.096.306-.176.604-.344ZM90.456 215.147c.307-.174.621-.335.918-.524 1.754-1.116 3.652-.457 4.888.585a3.246 3.246 0 0 1 1.153 2.017c.358 2.183-.299 4.044-1.971 5.449-1.606 1.349-3.482 1.586-5.472.911-.874-.297-1.526-.843-1.99-1.641-1.221-2.1-.513-4.966 1.562-6.261.298-.186.613-.349.92-.523a.37.37 0 0 1-.008-.013ZM145.976 135.424c1.176-.682 2.468-.737 3.651.152.135.1.259.206.373.316v5.286a4.287 4.287 0 0 1-3.33 1.616c-2.28.029-4.383-1.811-3.302-4.695.458-1.22 1.382-2.034 2.608-2.675ZM45.47 234.997c1.058 1.727.111 4.175-1.936 5.004-1.772.718-4.373-.098-5.433-1.697-.365-.549-.43-1.162-.341-1.78.212-1.5 1.864-3.158 3.338-3.394 1.713-.277 3.534.501 4.372 1.867ZM110.411 187.501c-1.258.782-2.281 1.008-3.363.836-1.77-.281-2.673-1.948-1.94-3.579.447-.995 1.161-1.752 2.17-2.22 1.395-.647 2.791-.451 3.924.577 1.374 1.246 1.364 2.554-.044 3.814-.326.292-.698.534-.747.572ZM140.62 155.204c-1.269.655-2.88.139-3.376-1.084-.517-1.275.124-2.808 1.404-3.28a13.394 13.394 0 0 1 1.781-.507c.568-.123 1.569.458 1.714 1.006.363 1.385.047 3.067-1.523 3.865ZM118.729 161.538c-1.269.656-2.88.14-3.376-1.083-.517-1.275.124-2.808 1.404-3.28a13.394 13.394 0 0 1 1.781-.507c.568-.124 1.569.458 1.714 1.006.362 1.385.045 3.067-1.523 3.864ZM82.264 175.597c-1.27.655-2.88.139-3.376-1.084-.517-1.275.124-2.808 1.404-3.279a13.233 13.233 0 0 1 1.781-.508c.568-.123 1.57.459 1.714 1.006.363 1.387.047 3.067-1.523 3.865ZM32.917 204.883c-1.27.656-2.88.14-3.376-1.083-.517-1.275.124-2.808 1.404-3.28a13.374 13.374 0 0 1 1.78-.507c.57-.124 1.57.458 1.715 1.006.363 1.386.047 3.068-1.523 3.864Z"
      fill="#DF4047" />
    <path
      d="M125.567 75.186c-7.872.162-15.676 1.23-23.343 3.066-4.227 1.01-8.349 2.395-12.28 4.319-2.133 1.044-4.12 2.233-5.669 4.053a9.189 9.189 0 0 1-3.164 2.423c-.82.381-1.63.313-2.322-.315-.778-.705-.96-1.88-.498-2.74.571-1.066 1.422-1.833 2.404-2.51 2.906-2.008 5.98-3.73 9.237-5.058 6.839-2.79 13.927-4.699 21.268-5.62.825-.105 1.642-.276 2.454-.453.112-.024.212-.246.254-.394.027-.101-.027-.31-.1-.338-.617-.25-1.235-.508-1.875-.694-5.627-1.634-11.258-3.253-16.885-4.882-9.826-2.84-19.77-5.092-29.958-6.218-2.215-.243-4.323-.1-6.432.536-2.887.871-5.82 1.515-8.83 1.791-1.19.11-2.326.075-3.426-.473-.98-.49-1.232-2.146-.452-3.04a5.966 5.966 0 0 1 3.414-1.968c1.966-.38 3.955-.707 5.948-.847 4.528-.318 9.04.064 13.511.742 3.97.6 7.913 1.38 11.871 2.07.423.072.668-.136.653-.524-.005-.117-.122-.25-.22-.342-.12-.114-.268-.2-.413-.282-7.76-4.379-14.685-9.915-21.484-15.61-2.87-2.405-6.007-4.199-9.618-5.203-2.905-.808-5.756-1.791-8.444-3.185-1.362-.707-2.53-1.627-3.146-3.105-.415-.993-.384-1.918.224-2.852.615-.945 1.475-1.432 2.533-1.241 1.306.235 2.623.56 3.85 1.055 3.117 1.258 5.956 3.011 8.727 4.916 4.56 3.138 8.598 6.907 12.854 10.411 9.366 7.717 19.677 13.867 30.729 18.812.91.407 1.876.69 2.822 1.016.138.047.307.01.461.012-.002-.167.06-.373-.017-.494a3.335 3.335 0 0 0-.621-.748c-4.944-4.267-9.406-9.003-13.734-13.89-4.468-5.042-8.285-10.506-11.292-16.516-.965-1.93-1.58-4.044-2.251-6.107-.313-.959-.228-1.987.148-2.956.325-.828.88-1.443 1.769-1.604.87-.157 1.709.104 2.272.765.535.626 1.047 1.348 1.314 2.117.81 2.364 1.907 4.698 1.84 7.252-.048 1.8.693 3.199 1.555 4.66 4.382 7.424 10.37 13.507 16.38 19.554a70.744 70.744 0 0 0 15.098 11.548c2.344 1.341 4.804 2.334 7.477 2.814 6.266 1.126 12.547 2.097 18.929 2.21.612.012 1.431.228 1.65-.65.147-.593-.497-.747-.876-.975-7.099-4.228-13.159-9.732-19.027-15.47-4.614-4.508-7.934-9.935-10.615-15.721-1.252-2.702-2.11-5.637-2.012-8.735.065-2.073.971-3.519 2.9-4.258.838-.323 1.677-.116 2.303.534 1.095 1.138 1.652 2.531 1.527 4.11-.106 1.333-.113 2.744-.581 3.96-.945 2.454-.26 4.547.87 6.68 1.658 3.13 3.838 5.907 6.155 8.524 4.662 5.27 9.937 9.907 15.594 14.099.271.199.531.407.8.61 3.836 2.908 7.907 4.925 12.224 6.089v5.12c-8.147 0-16.293-.02-24.434.15ZM132.815 92.924c-1.028.85-1.942 1.844-2.974 2.687-1.661 1.352-2.647 2.94-2.464 5.19.081.98-.084 2.017-.33 2.981a6.533 6.533 0 0 1-1.061 2.232c-.984 1.333-2.74 1.906-3.958 1.449-1.163-.439-1.802-2.106-1.376-3.905.466-1.972 1.4-3.748 2.453-5.472 2.584-4.24 6.286-7.358 10.284-10.132 2.056-1.441 4.328-2.553 6.504-3.81 3.245-1.999 6.632-3.699 10.108-5.21v3.933c-6.1 2.675-11.995 5.761-17.186 10.057ZM143.625 46.128c-2.924-2.291-5.385-5.005-7.742-7.83-1.404-1.685-2.445-3.608-2.74-5.838-.086-.654-.169-1.326-.119-1.98.095-1.209 1.147-2.358 2.152-2.463 1.299-.138 2.458.37 2.959 1.469.967 2.118 1.94 4.287 2.05 6.674.058 1.254.542 2.208 1.47 3.03 1.623 1.437 3.127 3.016 4.806 4.38 1.163.946 2.343 1.867 3.54 2.765v4.48a144.555 144.555 0 0 1-6.376-4.687Z"
      fill="#809667" />
    <path
      d="M149.255 166.874c-1.771-.281-2.674-1.948-1.941-3.58.448-.995 1.161-1.751 2.171-2.219.172-.081.345-.148.517-.202v6.054a4.193 4.193 0 0 1-.747-.053Z"
      fill="#DF4047" />
  </g>
  <defs>
    <clipPath id="a">
      <path fill="#fff" d="M0 0h150v250H0z" />
    </clipPath>
  </defs>
</svg>