<svg width="151" height="251" fill="none" xmlns="http://www.w3.org/2000/svg"><g clip-path="url(#a)"><path d="M57.925 7.018c2.14.533 4.302.975 6.434 1.54 1.246.331 2.548.578 3.61 1.384.553.42.77 1.027.613 1.723-.132.594-.814 1.084-1.482.998-1.03-.135-2.071-.256-3.072-.52-4.016-1.057-8.04-2.085-12.011-3.29-2.101-.638-4.1-1.615-6.143-2.445-.367-.15-.829-.326-1.042.018-.1.161.24.684.48.952 4.17 4.66 8.796 8.846 13.583 12.85 7.276 6.09 14.764 11.905 22.549 17.338 5.032 3.514 10.526 6.153 16.105 8.646.828.371 1.673.71 2.469 1.136.681.365.944 1.288.688 2.043a1.632 1.632 0 0 1-1.87 1.039 15.057 15.057 0 0 1-2.579-.811c-6.595-2.787-12.951-6.01-18.71-10.322-1.242-.928-2.568-1.744-3.866-2.598-.075-.049-.248-.007-.345.049-.094.053-.226.2-.207.263.077.245.196.48.32.71 1.434 2.62 2.892 5.227 4.303 7.863.86 1.603 1.61 3.261 2.055 5.04.162.644.23 1.273-.075 1.898-.244.503-.654.82-1.186.891-.53.072-1.065-.058-1.374-.537-.276-.432-.48-.916-.666-1.394-2.507-6.458-6.09-12.329-9.79-18.142-2.122-3.333-4.89-6.026-7.942-8.494-6.274-5.072-12.23-10.5-17.59-16.54-2.41-2.714-4.86-5.41-7.166-8.212h7.43a58.164 58.164 0 0 0 16.477 6.924Z" fill="#000"/><path d="M102.407 54.035c-2.37-.272-4.538-1.089-6.601-2.22-4-2.197-7.457-5.131-10.904-8.074-.704-.602-1.244-1.34-.96-2.373.231-.841 1.141-1.335 2.55-1.33 1.297.005 2.568.168 3.818.587 4.048 1.352 8.125 2.617 12.161 3.995 1.212.413 2.374 1.023 3.486 1.666.899.518 1.606 1.288 2.091 2.246 1.183 2.333-.004 4.935-2.549 5.378-1.005.177-2.06.093-3.092.125ZM43.491 26.564c-.175 1.117-.478 2.383-1.196 3.482-1.323 2.03-4.233 2.03-5.578.025-.811-1.207-1.164-2.59-1.47-3.986C34.052 20.64 33.42 15.11 32.792 9.58c-.056-.5.009-1.04.14-1.53.303-1.138 2.022-1.608 2.882-.813.283.263.586.534.778.861 1.915 3.235 3.88 6.44 5.293 9.943 1.084 2.683 1.546 5.473 1.606 8.523ZM54.363 29.705c.23-.834.37-1.602.657-2.31.403-.998 1.83-1.29 2.633-.582.288.254.584.524.798.84 2.947 4.349 5.074 9.041 5.759 14.293.184 1.412.058 2.833-.616 4.173-1.23 2.436-4.248 2.86-6.122.83-.812-.88-1.337-1.938-1.654-3.055-.389-1.364-.724-2.77-.843-4.178-.282-3.353-.42-6.715-.612-10.011ZM88.534 33.62c-1.002-.298-2.778-.69-4.444-1.358-2.76-1.106-5.32-2.626-7.768-4.313-.628-.433-1.238-.97-1.661-1.593-.536-.786-.54-1.721.002-2.555.468-.715 1.225-1.003 2.019-.852 2.785.527 5.565 1.095 8.334 1.706 2.012.443 4.07.7 5.982 1.553 1.184.53 2.354 1.052 3.281 1.993.892.902 1.147 1.977.91 3.204-.189.982-.781 1.678-1.698 1.933-1.366.377-2.77.648-4.957.283ZM19.398.094c-.652 1.23-1.338 2.188-2.847 2.125-1.472-.063-2.14-.832-2.653-2.125h5.5ZM74.376 51.657c.078-.886.77-1.885 2.092-2.456 1.676-.725 3.293-.677 4.792.396 1.483 1.064 2.274 2.484 1.878 4.359-.103.492-.308 1.004-.603 1.406-1.002 1.367-3.587 1.996-5.317 1.353-2.035-.757-3.09-2.408-2.842-5.058Z" fill="#809667"/><path d="M69.674 4.946c2.332.415 4.052 2.64 3.61 4.674-.473 2.176-2.934 4.071-4.77 3.674-2.174-.468-4.01-3.2-3.548-5.279.44-1.987 2.66-3.434 4.709-3.069Z" fill="#DF4047"/><path d="M8.831 230.891c1.098 2.347 1.638 4.644.84 7.227-.505 1.626-.669 3.367-.913 5.066-.087.604-.081 1.272.091 1.85.283.947.988 1.569 1.967 1.824.77.201 1.985-.269 2.453-1.007.764-1.2 1.264-2.49 1.348-3.939.137-2.352.073-4.652-.645-6.949-2.077-6.631-5.322-12.663-9.294-18.31a70.66 70.66 0 0 0-4.283-5.53v5.485c3.332 4.382 6.06 9.197 8.436 14.283ZM40.81 219.581c-4.966-3.563-10.379-6.332-15.951-8.806-.264-.119-.446-.414-.665-.629.217-.072.427-.166.65-.209.148-.03.31.006.466.02 9.812.728 19.634 1.327 29.433 2.221 7.319.669 14.517 2.174 21.536 4.385 3.87 1.219 7.616 2.779 11.151 4.828 1.919 1.113 3.69 2.349 5.014 4.148a8.585 8.585 0 0 0 2.786 2.463c.738.408 1.498.397 2.18-.14.773-.606 1.016-1.689.644-2.519-.464-1.028-1.204-1.801-2.073-2.496-2.573-2.059-5.323-3.863-8.27-5.316-6.184-3.047-12.661-5.29-19.438-6.629-.76-.151-1.508-.365-2.255-.582-.102-.029-.184-.242-.21-.384-.022-.096.047-.287.114-.308l.096-.032c.56-.183 1.122-.367 1.694-.491 5.347-1.152 10.697-2.292 16.044-3.437 9.337-2.002 18.746-3.445 28.307-3.826 2.076-.083 4.031.19 5.955.921 2.632 1.001 5.32 1.792 8.105 2.248 1.102.18 2.162.223 3.221-.217.944-.392 1.287-1.917.622-2.803a5.56 5.56 0 0 0-3.049-2.057c-1.804-.482-3.635-.918-5.483-1.179-4.195-.594-8.421-.531-12.632-.197-3.737.298-7.458.766-11.19 1.149-.398.042-.612-.17-.574-.531.013-.11.13-.227.227-.305.12-.098.263-.171.405-.237 7.514-3.57 14.325-8.273 21.031-13.131 2.832-2.05 5.87-3.515 9.297-4.215 2.758-.563 5.478-1.29 8.074-2.414 1.316-.568 2.463-1.347 3.133-2.685.451-.9.484-1.761-.019-2.671-.51-.922-1.279-1.432-2.281-1.322-1.23.133-2.478.349-3.653.729-2.983.966-5.744 2.415-8.448 4.005-4.453 2.623-8.461 5.866-12.654 8.852-9.229 6.571-19.232 11.623-29.85 15.504-.874.319-1.792.521-2.695.761-.133.036-.285-.012-.43-.019.01-.157-.032-.352.047-.459.177-.243.389-.475.628-.654 4.885-3.649 9.35-7.768 13.7-12.034 4.493-4.403 8.407-9.241 11.599-14.641 1.026-1.734 1.734-3.662 2.496-5.54.353-.87.343-1.836.057-2.762-.246-.792-.724-1.401-1.543-1.611-.8-.205-1.597-.014-2.166.564-.541.55-1.065 1.185-1.362 1.884-.909 2.148-2.084 4.248-2.189 6.633-.074 1.679-.854 2.933-1.753 4.239-4.568 6.625-10.543 11.901-16.536 17.133a66.026 66.026 0 0 1-14.817 9.763c-2.271 1.096-4.628 1.858-7.15 2.13-5.91.636-11.824 1.13-17.772.817-.57-.03-1.348.115-1.493-.712-.098-.562.513-.664.882-.85 6.887-3.472 12.893-8.199 18.733-13.158 4.593-3.897 8.04-8.734 10.915-13.947 1.343-2.435 2.333-5.11 2.448-8.002.077-1.935-.672-3.341-2.421-4.156-.76-.353-1.556-.217-2.18.344-1.095.988-1.704 2.247-1.69 3.726.012 1.249-.076 2.564.28 3.726.722 2.349-.057 4.253-1.247 6.165-1.749 2.807-3.963 5.249-6.292 7.535-4.686 4.601-9.903 8.574-15.449 12.108-.263.167-.52.345-.783.516-7.407 4.831-15.43 6.396-24.17 4.951-6.012-.993-11.985-2.139-17.885-3.649-.242-.062-.414-.408-.62-.621.23-.136.445-.333.695-.395 2.576-.647 5.185-1.177 7.732-1.925a74.303 74.303 0 0 0 16.343-6.975c4.596-2.661 9.218-5.269 13.623-8.247 2.873-1.943 5.346-4.309 7.724-6.784 1.419-1.477 2.514-3.2 2.934-5.258.123-.606.244-1.225.24-1.838-.008-1.132-.914-2.272-1.844-2.435-1.201-.215-2.315.183-2.852 1.174-1.039 1.909-2.087 3.865-2.346 6.08-.138 1.164-.65 2.021-1.567 2.723-1.605 1.233-3.11 2.604-4.763 3.767-5.249 3.688-10.82 6.86-16.512 9.79a68.651 68.651 0 0 1-20.454 6.736v7.659c2.873.887 5.744 1.78 8.61 2.69 7.004 2.223 13.77 5.064 20.318 8.373 6.279 3.173 12.362 6.702 17.509 11.605.903.86 1.686 1.846 2.593 2.697 1.457 1.367 2.273 2.909 1.954 4.993-.14.91-.051 1.883.11 2.796.134.746.435 1.509.841 2.151.83 1.304 2.426 1.954 3.59 1.607 1.112-.332 1.818-1.843 1.538-3.549-.304-1.868-1.058-3.581-1.924-5.256-2.127-4.118-5.373-7.264-8.913-10.109-1.825-1.455-3.868-2.641-5.811-3.955Z" fill="#467156"/><path d="M26.863 231.543c-.751-.555-1.534-1.084-2.526-.776-.885.273-1.767.643-2.029 1.661-.32 1.244-.26 2.443.71 3.426.996 1.016 2.242 1.584 3.607 1.9.855.197 1.881-.414 2.18-1.266.817-2.356.437-3.324-1.942-4.945ZM128.512 162.858c-2.443-1.459-4.978-.446-5.824 2.357a2.222 2.222 0 0 0 .49 2.18c.895.989 2.058 1.497 3.357 1.05.86-.296 1.682-.816 2.398-1.389 1.568-1.253 1.346-3.143-.421-4.198ZM119.765 156.927c.969-1.443.393-3.863-1.157-4.883-1.277-.838-3.68.141-4.666 1.902-.65 1.161-.003 2.956 1.444 4.003 1.457 1.053 3.269.63 4.379-1.022ZM24.479 178.12c.656-1.204.211-3.255-.91-4.179-1.094-.902-3.1-.705-4.206.416-.577.584-.774 1.796-.388 2.582.654 1.332 1.752 2.094 3.189 2.363.824.156 1.896-.415 2.315-1.182ZM114.027 166.164c-.168.357-.498.895-.677 1.483-.443 1.441.75 3.164 2.336 3.446 1.422.253 2.761-.808 2.945-2.306.139-1.128-.116-2.147-.682-3.127-.65-1.125-2.265-1.345-3.176-.389-.212.225-.401.475-.746.893ZM9.769 173.685c-1.432-.769-3.751-.021-4.41 1.423-.56 1.22.025 2.957 1.223 3.634 1.288.731 3.38.26 4.164-.938.782-1.195.245-3.462-.977-4.119ZM78.768 189.86c.122-.286.281-.562.356-.857.43-1.738-.116-3.101-1.402-3.54-1.492-.512-3.078.254-3.823 1.855-.566 1.215.095 2.637 1.602 3.444 1.143.606 2.654.191 3.267-.902ZM131.084 189.588c-1.201-.75-2.978-.192-3.978 1.249-.77 1.11-.333 2.831.912 3.602 1.444.895 3.133.53 4.027-.868.898-1.41.499-3.068-.961-3.983ZM66.887 226.905c-.835-.413-1.712-.548-2.606-.082-1.148.601-1.85 1.89-1.624 3.015.199 1.006.92 1.541 1.8 1.912.141.058.296.078.444.115 1.677.424 2.994-.101 3.447-1.378.414-1.156-.25-2.804-1.46-3.582ZM69.106 243.041c-1.268-1.025-3.02-.786-4.037.548-.926 1.214-.776 2.848.342 3.684 1.298.973 3.443.938 4.197-.068.856-1.144.599-3.275-.502-4.164ZM109.816 225.362c-1.101-.789-2.816-.39-3.587.833-.688 1.087-.326 2.782.787 3.686.929.758 2.983.519 3.77-.437.783-.952.244-3.212-.97-4.082ZM83.35 238.533c.796-1.25.395-2.788-.93-3.578-1.167-.693-2.908-.325-3.715.786-.682.938-.167 2.873.988 3.708 1.04.755 2.885.292 3.657-.916ZM105.65 217.601c.587-.828.645-1.84.15-2.613-.734-1.14-1.915-1.692-3.159-1.477-.998.172-1.85.89-1.997 1.695-.151.817.042 1.565.646 2.126.446.414.964.781 1.51 1.055 1.036.523 2.167.176 2.85-.786ZM34.266 199.213c-.823-.583-1.68-.625-2.593-.209-.936.426-1.39 1.131-1.393 2.157-.004.943.096 1.87.96 2.426.997.641 2.99.013 3.638-1.078.628-1.055.33-2.655-.612-3.296ZM11.222 185.951c-.644.962-.367 2.131.665 2.806 1.316.859 2.789.616 3.686-.609.67-.913.518-2.227-.336-2.923-1.27-1.038-3.05-.716-4.015.726Z" fill="#DF4047"/><path d="M8.326 129.488c-1.303-1.303-2.613-2.6-3.908-3.911a59.543 59.543 0 0 0-4.023-3.722v-7.261c7.243 2.051 14.288 4.676 21.006 8.075 4.726 2.391 8.818 5.63 12.342 9.59 1.836 2.062 2.98 4.45 3.631 7.112a6.288 6.288 0 0 1-.081 3.355c-.84 2.826-3.282 4.438-6.17 3.93-1.1-.194-2.242-.517-3.207-1.059-2.217-1.243-4.45-2.509-6.476-4.032-3.396-2.55-6.707-5.222-9.576-8.392-1.139-1.26-2.396-2.416-3.599-3.618a.556.556 0 0 1 .06-.067ZM49.577 121.867c-1.004-.985-2.089-1.904-2.75-3.187-.39-.755.154-1.872.987-1.958.559-.059 1.128-.113 1.685-.075 5.36.361 10.725.657 16.074 1.144 5.662.514 11.138 1.844 16.36 4.17 2.776 1.236 5.072 3.045 7.02 5.342.182.215.372.427.543.653 3.689 4.82 1.447 10.419-4.585 11.391-2.125.344-4.219.057-6.3-.471-3.172-.805-6.181-2.066-9.056-3.564-4.883-2.544-9.6-5.38-14.009-8.71-2.028-1.532-4.21-2.862-5.969-4.735ZM3.823 91.269c-.066 1.276-.37 2.525-1.005 3.66a44.865 44.865 0 0 1-2.422 3.867V87.084c2.15.275 3.546 1.883 3.427 4.185ZM52.966 102.514a35.264 35.264 0 0 1-10.092 6.127c-6.085 2.426-12.45 3.764-18.9 4.743-2.658.402-5.335.674-8.005.993-.415.049-.84.063-1.259.046-.577-.024-1.284-.995-1.09-1.571.176-.518.365-1.159.763-1.455 5.797-4.277 11.304-8.975 17.502-12.676 3.023-1.804 6.272-3.255 9.49-4.704 2.325-1.045 4.794-1.755 7.38-1.83 1.86-.056 3.671.14 5.242 1.313 1.864 1.393 2.397 3.066 1.608 5.204-.547 1.498-1.47 2.733-2.64 3.81Z" fill="#467156"/><path d="M16.24 100.777c-.252.222-.55.529-.892.775-1.573 1.141-3.692.74-4.82-.894-1.04-1.508-.471-3.84 1.2-4.757 1.151-.633 2.384-.803 3.678-.465 2.068.545 2.89 3.108 1.49 4.683-.186.208-.394.398-.655.658ZM48.09 133.851c-1.258 1.142-3.61.808-4.818-.684-.891-1.101-.675-3.259.423-4.2 1.231-1.057 3.74-.848 4.984.412 1.065 1.08.782 3.228-.59 4.472ZM62.743 109.674c-1.084 1.134-2.512 1.173-3.666.092-1.03-.964-1.156-2.388-.296-3.325 1.031-1.123 3.036-1.184 4.118-.124.854.835.783 2.374-.156 3.357Z" fill="#DF4047"/><path d="M.626 111.678c.566-.019 1.134-.002 1.696-.054 5.234-.49 10.464-.352 15.707-.103 5.383.256 10.757.555 16.061 1.529 1.582.289 3.09.245 4.62-.126 4.125-1.004 8.248-2.022 12.376-3.018 1.094-.264 2.197-.517 3.309-.694.684-.108 1.395.536 1.495 1.219.099.668-.345 1.427-1.037 1.635-2.85.848-5.71 1.666-8.556 2.52-.191.058-.459.37-.435.524.034.211.277.506.485.561a100.858 100.858 0 0 1 12.868 4.344c2.382.99 4.714 2.1 7.045 3.208l.287.136c.763.363 1.42.918 1.828 1.71.296.576.194 1.159-.186 1.571-.24.259-.79.426-1.136.35-.678-.15-1.338-.444-1.957-.773-6.92-3.687-14.303-6.113-21.888-7.957-4.817-1.171-9.676-2.157-14.605-2.746-.412-.049-.838-.002-1.257.029-.07.006-.18.151-.181.235-.003.131.027.326.116.387.462.315.944.606 1.427.889 2.93 1.71 5.912 3.335 8.77 5.155 1.414.902 2.62 2.14 3.874 3.279.561.511.574 1.462.1 1.917-.574.552-1.252.597-1.933.208-.611-.35-1.254-.677-1.793-1.124-5.417-4.492-11.646-7.462-18.228-9.767-6.631-2.324-6.65-2.323-13.65-2.032l-.036.001a92.255 92.255 0 0 0-5.415.403v-3.416c.061.009.15.003.229 0ZM9.411 105.168a60.64 60.64 0 0 1-7.979 5.194c-.336.184-.704.31-1.035.501v-3.612c2.147-1.145 4.23-2.435 6.153-3.967.545-.433 1.18-.765 1.806-1.08.611-.306 1.561-.005 1.854.558.276.535.278 1.084-.109 1.585-.171.219-.359.429-.69.821Z" fill="#23221E"/></g><defs><clipPath id="a"><path fill="#fff" transform="translate(.395 .094)" d="M0 0h150v250H0z"/></clipPath></defs></svg>