<svg xmlns="http://www.w3.org/2000/svg" width="71" height="71" fill="none">
  <g fill="#000">
    <path fill-rule="evenodd"
      d="M41.932 9.175c.496.247 1.076.69 1.311 1.385.13.38.11.733.06 1.013a5.713 5.713 0 0 1-.136.541v.002l-.033.115a1.544 1.544 0 0 1-.378.648c-.152.16-.334.3-.523.408-.346.199-.884.39-1.427.244l-.394-.101-.01-.003c-.315-.079-.662-.166-.979-.267a1.195 1.195 0 0 1-.661-.549 1.9 1.9 0 0 1-.208-.55 2.644 2.644 0 0 1-.056-.416c-.037.254-.114.559-.295.842a3.447 3.447 0 0 1-.299.416c-.128.148-.264.26-.42.37-.431.301-.88.375-1.153.42h-.003l-.114.02c-.438.084-.931.012-1.344-.15-.405-.159-.893-.47-1.13-1.009l-.016-.037c-.074-.166-.172-.389-.205-.63-.04-.294.022-.55.079-.762l.003-.012c.066-.247.207-.772.438-1.258.118-.247.278-.523.493-.757.215-.234.536-.478.97-.537a1.8 1.8 0 0 1 .504.015c.15.023.31.06.465.107.286.085.658.23.936.45l.038.026.102.063v.001l.018.01c.093.058.226.14.354.235.123.092.288.228.42.41.136.187.282.487.228.862-.01.067-.015.15-.02.272l-.003.062-.001.021.306-1.144a1.4 1.4 0 0 1 .777-.915 2.39 2.39 0 0 1 .708-.189h.003c.497-.066 1.102.083 1.595.328Zm-.731 1.469c-.307-.153-.576-.18-.648-.17-.063.008-.11.015-.152.024l-.266.993v.04c.001.041.006.088.013.134.192.055.384.103.588.154l.016.004c.145.037.296.075.458.118a.647.647 0 0 0 .205-.077.663.663 0 0 0 .147-.11l.002-.003.044-.154.027-.093c.025-.09.042-.16.053-.22.021-.118.012-.168.002-.197-.04-.117-.186-.293-.49-.443Zm-5.45-.447-.012.012a1.485 1.485 0 0 0-.219.352c-.162.34-.27.738-.338.989a1.986 1.986 0 0 0-.03.13v.003a4.484 4.484 0 0 0 .091.212c.011.013.066.078.226.141.186.073.361.08.436.066l.207-.039.02-.003c.244-.045.303-.056.41-.131a.62.62 0 0 0 .125-.104c.028-.031.063-.08.154-.222.016-.026.05-.105.068-.323.007-.084.01-.166.015-.263l.004-.081.009-.168a4.085 4.085 0 0 0-.214-.138l-.015-.01-.13-.081a2.153 2.153 0 0 1-.168-.118.722.722 0 0 0-.128-.07 2.043 2.043 0 0 0-.505-.153l-.007-.001Z"
      clip-rule="evenodd" />
    <path fill-rule="evenodd"
      d="M47.61 29.085a3.51 3.51 0 0 0 .287-.194 3.78 3.78 0 0 0 .002.288c.01.216.044.543.177.847.217.495.667.623.79.652.165.04.309.038.382.035.158-.007.315-.036.418-.057.115-.024.226-.052.31-.074l.044-.012.06-.016a2.179 2.179 0 0 1 .212.023l.015.002.138.016c.091.01.22.023.357.02.114-.002.305-.011.452-.02h.019l.162-.008c.182-.006.292 0 .365.015.473.09.934.095 1.334.08.198-.007.393-.02.57-.032h.008c.184-.012.348-.023.506-.028a1.99 1.99 0 0 0 .6-.104c.26-.094.55-.283.729-.625a1.45 1.45 0 0 0 .155-.718 2.798 2.798 0 0 0-.019-.24l.012-.033c.012-.032.027-.075.041-.121.029-.09.069-.231.083-.4.017-.203.014-.504.012-.69-.001-.065-.002-.115-.001-.144.006-.358.02-.713.037-1.085v-.006c.015-.366.032-.749.038-1.14.003-.202.027-.4.057-.657v-.002c.011-.098.024-.203.036-.32.04-.36.078-.82.014-1.29a4.565 4.565 0 0 1 .096-.464c.075-.279.08-.56.082-.704v-.027c.004-.16.008-.201.01-.208.109-.41.195-.81.274-1.18l.002-.01c.082-.38.157-.73.251-1.082.093-.345.146-.679.19-.954l.003-.018c.038-.237.07-.433.113-.617a5.54 5.54 0 0 0 .179-1.252 1.094 1.094 0 0 0-.82-1.112 5.107 5.107 0 0 0-2.382-1.396l-.015-.295-.002-.026c-.039-.716-.067-1.288.042-1.806.095-.456.006-.89-.048-1.149l-.011-.055c-.062-.31-.068-.419-.045-.505.022-.081.054-.223.04-.387a.871.871 0 0 0-.468-.712.892.892 0 0 0-.667-.054 1.191 1.191 0 0 0-.252.113c-.101.06-.2.134-.255.174l-.004.004-.06.045-.015.01-.003.003h.001c-.267.155-.668.43-.933.728-.128.145-.266.283-.425.442l-.203.205c-.23.235-.49.511-.706.819-.07.1-.146.192-.24.3l-.047.055-.017.019c-.077.087-.168.191-.256.3a2.596 2.596 0 0 1-.093.074l-.006.004c-.026.019-.06.044-.094.071-.164.129-.42.36-.529.768a.82.82 0 0 0 1.557.511l.048-.036a3.89 3.89 0 0 0 .105-.08 1.8 1.8 0 0 0 .287-.28c.066-.08.127-.15.199-.233l.086-.098a5.2 5.2 0 0 0 .344-.434c.133-.19.312-.386.533-.61l.075-.077.088-.088c.13-.13.272-.273.404-.414.016.11.016.174.004.231-.156.743-.113 1.514-.078 2.166l.004.065.01.188-.052.008c-.253.043-.497.1-.71.152l-.11.027c-.178.043-.335.082-.497.115-.893.182-1.883.607-2.604 1.335a3.716 3.716 0 0 0-.678.903c-.174.342-.325.826-.22 1.368-.038.397.03.764.07.973l.012.065c.028.152.046.248.055.335.006.053.005.08.005.087-.092.458-.023.922.016 1.193l.018.12c.02.138.036.241.045.325-.497-.136-.853-.124-1.251-.095-.294.02-.521.073-.719.13a8.618 8.618 0 0 0-.216.064h-.001c-.074.024-.133.042-.236.068-.4.101-.628.163-1.02.273l-.117.033c-.57.16-.948.266-1.567.477-.174.059-.335.122-.46.172l-.061.024a2.862 2.862 0 0 1-.29.102l-.018.005-.15.038-.007.001-.008-.002-.013-.002-.011-.003h-.002a1.219 1.219 0 0 1-.153-.074l-.016-.01-.019-.028c-.025-.039-.052-.077-.073-.106.063-.21.134-.427.212-.66l.007-.023c.101-.304.213-.641.302-.976.015-.056.098-.223.323-.48.205-.236.451-.463.66-.64.683-.58 1.34-1.177 1.985-1.764l.001-.002.315-.286c.092-.084.193-.172.3-.266l.001-.001.012-.01c.532-.465 1.214-1.062 1.687-1.817.553-.882.803-1.828 1.018-2.642l.001-.004.062-.234.07-.25v-.002c.076-.267.172-.608.24-.934.098-.46.172-1.025.089-1.609-.063-.434-.165-.83-.42-1.193a2.5 2.5 0 0 0-.345-.389l-.134-.122-.012-.01a22.387 22.387 0 0 0-.888-.786c-.25-.212-.6-.394-.797-.491a9.276 9.276 0 0 0-.391-.182l-.027-.012-.008-.004-.01-.004-.015-.006-.023-.01-.085-.034a28.661 28.661 0 0 0-.286-.113 13.077 13.077 0 0 0-2.222-.671c-.278-.062-.512-.132-.786-.213l-.01-.003a11.515 11.515 0 0 0-.963-.255 201.71 201.71 0 0 1-1.648-.36l-.784-.172c-.246-.053-.46-.106-.67-.157l-.15-.037a9.125 9.125 0 0 0-.764-.161 3.295 3.295 0 0 0-1.76.173c-.35.133-.585.204-.83.277l-.003.002c-.111.033-.224.067-.352.108a6.737 6.737 0 0 0-1.402.632c-.062.036-.14.076-.261.138l-.006.003a8.596 8.596 0 0 0-.4.215c-.254.147-.681.418-.948.863-.131.219-.343.468-.597.765v.001l-.156.183c-.434.513-.602 1.113-.695 1.56-.038.185-.07.374-.096.535l-.017.102c-.032.193-.06.339-.093.461-.114.427-.165.973-.154 1.481.012.483.082 1.11.337 1.615.04.078.081.166.126.26.236.492.561 1.172 1.126 1.718.34.328.567.799.881 1.496.24.531.339 1.233.232 1.632-.025.093-.058.233-.09.372l-.015.066c-.04.172-.085.363-.134.549a6.821 6.821 0 0 1-.17.567c-.037.042-.082.09-.144.154l-.062.066a4.309 4.309 0 0 0-.397.472l-.034.046a7.144 7.144 0 0 1-.31.384 5.077 5.077 0 0 1-.061.07 5.38 5.38 0 0 0-.515.111l-.074.019a3.284 3.284 0 0 1-.456.1c-.667.07-1.32.205-1.91.327h-.002l-.07.015c-.629.13-1.192.244-1.75.296a8.11 8.11 0 0 0-.969.166l-.026.006a6.354 6.354 0 0 1-.74.132c-.77.072-1.334.429-1.776.804-.176.149-.341.272-.522.407l-.024.018c-.18.133-.394.293-.594.479-.45.415-.799.927-1.007 1.705-.012.045-.028.09-.055.159l-.021.05-.002.005a7.426 7.426 0 0 0-.093.235 3.33 3.33 0 0 0-.204 1.052 1.6 1.6 0 0 0 .19.806c.098.187.218.344.322.464.205.24.436.435.565.54.298.24.821.565 1.3.693l1.387.372c.283.076.689.119 1.01.142.332.024.72.037.992.015a8.83 8.83 0 0 0 .993-.16l.014-.003c.088-.018.163-.034.221-.044.221-.038.375-.05.506-.035l.075.08c.006.01.017.03.03.057.035.075.074.181.11.312.06.217.064.315.034.651a5.916 5.916 0 0 1-.156.974c-.077.338-.161.633-.242.916l-.003.011c-.039.137-.077.271-.113.406l-.292 1.088c-.18.673-.511 1.307-.925 1.735a7.1 7.1 0 0 0-.745.952l-.03.043c-.19.28-.334.49-.5.677-.243.274-.451.561-.631.819l-.15.217-.001.001-.011.016v.001c-.12.172-.225.325-.34.48l-.25.33c-.75.988-1.742 2.297-2.127 3.734-.027.103-.044.158-.064.223-.019.061-.04.131-.075.258-.051.181-.11.42-.131.678a2.08 2.08 0 0 0 .123.92c.13.34.351.625.636.856.767.62 1.382.75 2.066.892l.026.006c.435.09.838.02 1.117-.052.233-.06.466-.147.617-.204h.001l.073-.027c.508-.187.827-.51 1.041-.762.114-.134.183-.223.239-.295.073-.095.125-.162.229-.267l.016-.016.001-.001c.935-.945 1.737-1.755 2.413-2.733.21-.304.405-.624.579-.91v-.002l.13-.21c.214-.352.41-.655.633-.928.132-.16.252-.292.392-.445v-.002c.082-.088.17-.185.271-.299.103-.116.188-.234.253-.328.03-.043.075-.11.112-.167l.007-.011.05-.074c.092-.137.128-.172.128-.172.266-.202.46-.447.581-.601l.087-.112c.088-.114.135-.174.19-.229.041-.042.103-.09.254-.198l.023-.016c.126-.09.327-.233.508-.412.21-.207.643-.46 1.216-.56l.157-.027.192-.034a6.26 6.26 0 0 1-.145.823c-.278 1.037-.465 2.1-.642 3.11l-.004.025c-.182 1.034-.355 2.012-.606 2.952-.321 1.198-.208 2.251.134 3.32.163.51.353 1.058.837 1.629.33.39.903 1.018 1.452 1.39l.065.044c.243.166.61.416 1.01.599.44.2 1.07.394 1.763.22a1.37 1.37 0 0 1 .174-.032c.054-.008.127-.018.256-.04a2.53 2.53 0 0 0 .845-.298c.586-.338.903-.753 1.177-1.15.353-.51.533-1.046.664-1.47l.05-.166.03-.096c.097-.325.17-.566.283-.807.288-.609.462-1.33.597-1.893v-.002c.04-.166.077-.318.112-.45.043-.16.085-.286.136-.437v-.001c.042-.127.09-.272.15-.471.106-.348.225-.809.221-1.286-.005-.572.085-1.198.183-1.876.033-.23.067-.464.098-.706.006-.046.018-.131.034-.234l.004-.027c.03-.207.07-.478.092-.66.04-.337.078-.79.013-1.204v-.003a2.562 2.562 0 0 1 .005-.173v-.033c.008-.118.021-.333 0-.553l-.027-.255c-.035-.336-.06-.569-.04-.786.035-.4.002-.79-.03-1.098a34.573 34.573 0 0 0-.022-.212l-.002-.017a7.048 7.048 0 0 1-.048-.574c-.011-.432.072-.813.18-.986.18-.288.255-.595.293-.765l.05-.238c.01-.054.016-.086.03-.134a.874.874 0 0 1 .054-.108l.081-.138.002-.003c.03-.05.069-.116.106-.183.181-.327.392-.607.675-.957.03-.037.093-.094.28-.216l.038-.024.04-.026a5.114 5.114 0 0 0 .87-.667l.002-.001c.343-.306.601-.535.906-.719ZM43.701 7.894c-.474-.155-.735-.221-1.243-.333-.359-.079-.66-.17-.923-.248l-.03-.009a9.422 9.422 0 0 0-.788-.21c-.507-.107-1.114-.241-1.681-.366l-.014-.003-.752-.166c-.276-.06-.524-.12-.734-.173l-.137-.033a7.11 7.11 0 0 0-.579-.125c-.261-.04-.424-.03-.649.056-.427.163-.779.27-1.045.35-.093.027-.176.052-.248.075-.273.088-.537.19-.978.445-.113.065-.238.129-.339.18l-.026.014c-.116.059-.212.109-.3.16-.087.05-.143.089-.176.117l-.01.008c-.236.384-.584.79-.825 1.071l-.115.135c-.077.09-.153.253-.224.595-.029.135-.05.269-.077.426l-.02.125a7.141 7.141 0 0 1-.138.666 3.427 3.427 0 0 0-.08.865c.01.385.07.616.102.678.078.153.144.288.204.41v.003c.228.463.357.728.617.98.669.647 1.047 1.487 1.325 2.104l.03.064c.364.808.631 2.047.35 3.098a11.49 11.49 0 0 0-.072.302l-.016.066c-.04.174-.09.387-.145.6-.055.21-.119.439-.188.643-.053.153-.162.46-.353.697-.104.129-.23.26-.318.354l-.044.046c-.11.116-.165.182-.197.227a9.725 9.725 0 0 1-.476.6c-.1.116-.22.25-.337.363a2.078 2.078 0 0 1-.229.192 1.37 1.37 0 0 1-.208.123 1.17 1.17 0 0 1-.484.116 2.008 2.008 0 0 0-.436.081l-.071.019c-.194.05-.48.125-.77.155-.559.06-1.117.175-1.739.304h-.001l-.029.006c-.615.128-1.294.267-1.991.332-.213.02-.435.067-.735.132l-.02.004c-.275.06-.62.134-.98.168-.154.014-.305.075-.564.294-.23.195-.445.355-.62.485l-.033.025c-.19.142-.314.237-.418.333-.158.146-.28.3-.378.664a3.534 3.534 0 0 1-.184.52l-.001.003a2.93 2.93 0 0 0-.046.116c-.018.05-.037.105-.05.18a3.027 3.027 0 0 0 .246.224 2.08 2.08 0 0 0 .49.282l1.387.372c.065.017.288.05.602.073.303.022.556.024.657.016a4.32 4.32 0 0 0 .57-.091l.003-.001c.126-.026.27-.056.456-.089.427-.074.972-.132 1.585.033.091.024.229.061.355.117a1.217 1.217 0 0 1 .59.53c.379.38.573.938.675 1.308.157.566.147.952.105 1.425a8.054 8.054 0 0 1-.202 1.266c-.09.398-.206.802-.293 1.108l-.002.008c-.033.116-.062.217-.083.298l-.292 1.088c-.253.947-.739 1.938-1.466 2.69-.167.172-.316.38-.512.667l-.046.068a8.55 8.55 0 0 1-.653.867 6.77 6.77 0 0 0-.473.62l-.13.186-.002.005-.001.001c-.127.185-.27.39-.412.581l-.236.314c-.795 1.057-1.512 2.01-1.779 3.006-.027.1-.055.195-.08.277l-.008.03-.058.196c-.026.094-.041.16-.05.207.31.24.5.287 1.097.412.01 0 .051-.003.136-.025.112-.029.219-.068.367-.123l.002-.001.117-.043a.062.062 0 0 0 .02-.013.825.825 0 0 0 .107-.11c.041-.049.075-.092.12-.149l.004-.005.099-.125c.094-.117.212-.26.357-.407.97-.979 1.635-1.657 2.186-2.455.17-.246.321-.495.49-.774l.152-.248c.226-.368.485-.775.805-1.167.168-.206.36-.417.525-.598.072-.078.138-.151.195-.216.04-.044.07-.09.136-.19.03-.043.065-.097.11-.165.114-.167.317-.46.617-.688.02-.015.067-.06.181-.206l.018-.023.028-.036c.093-.122.241-.314.4-.475.186-.187.392-.334.521-.426h.001l.016-.012c.154-.11.22-.16.268-.207.564-.555 1.417-.988 2.374-1.155l.055-.01.075-.014.01-.002c.47-.09 1.226-.233 2.018.17.344.174.52.456.605.643.086.19.125.377.144.518.04.283.03.587.01.839a8.37 8.37 0 0 1-.224 1.338c-.25.937-.423 1.914-.605 2.947l-.003.02c-.178 1.012-.365 2.079-.644 3.12-.188.702-.141 1.318.105 2.088.146.455.23.655.421.88.324.382.73.804 1.01.994l.043.029c.271.183.493.333.716.436.235.107.322.087.322.087a3.993 3.993 0 0 1 .458-.085h.003a4.08 4.08 0 0 0 .116-.02c.1-.017.122-.03.135-.037.163-.094.256-.188.471-.5.152-.219.254-.482.373-.87l.054-.178v-.002l.002-.007c.1-.334.229-.767.42-1.173.184-.388.28-.785.4-1.285.051-.21.106-.438.174-.69.05-.188.136-.45.208-.67.04-.122.075-.23.098-.307.091-.304.128-.501.127-.633-.007-.757.118-1.623.221-2.332l.002-.013v-.001c.028-.193.054-.374.076-.538.022-.168.04-.292.06-.41v-.004c.022-.144.043-.28.067-.481.037-.313.039-.51.024-.608-.041-.258-.027-.5-.02-.632l.001-.01c.01-.167.011-.21.008-.243l-.018-.166c-.037-.337-.092-.833-.051-1.287a3.67 3.67 0 0 0-.027-.679 24.08 24.08 0 0 0-.017-.163 10.013 10.013 0 0 1-.066-.807c-.015-.592.066-1.472.497-2.178.007-.019.015-.051.027-.105.01-.042.017-.077.026-.122l.018-.09c.017-.08.04-.189.072-.3.069-.232.17-.429.246-.563.036-.064.072-.125.102-.174l.007-.012c.033-.056.056-.095.075-.13.276-.497.584-.896.887-1.27.263-.325.58-.539.788-.674l.132-.085.013-.009a2.52 2.52 0 0 0 .494-.381c.346-.31.784-.703 1.28-1.002.16-.097.314-.24.53-.474l.112-.122c.181-.2.42-.465.684-.69l.003-.004a.923.923 0 0 0 .06-.087v-.053c-.003-.108-.01-.203-.02-.322v-.011c-.007-.08-.014-.173-.021-.287a4.19 4.19 0 0 1 .02-.886 3.55 3.55 0 0 0 .034-.63.828.828 0 0 0-.172-.212c-.218-.176-.368-.28-.541-.33-.168-.05-.235-.055-.549-.032-.1.007-.172.022-.272.05a6.652 6.652 0 0 0-.117.036l-.093.028a6.52 6.52 0 0 1-.31.087 31.63 31.63 0 0 0-.963.258l-.112.031h-.001c-.57.16-.897.252-1.457.443-.121.041-.23.084-.355.133l-.075.03a4.857 4.857 0 0 1-.53.18l-.018.005-.025.007a2.945 2.945 0 0 1-.54.101 2.226 2.226 0 0 1-.756-.08 2.985 2.985 0 0 1-1.016-.524c-.1-.08-.267-.228-.392-.445a2.142 2.142 0 0 0-.08-.118l-.004-.005v-.001c-.045-.064-.119-.17-.186-.29-.14-.248-.341-.71-.19-1.278.095-.352.21-.7.313-1.01l.002-.006c.108-.324.201-.607.273-.877.147-.548.5-1.022.786-1.35.306-.352.644-.659.896-.873a73.003 73.003 0 0 0 1.923-1.71l.321-.292c.156-.141.301-.27.438-.39l.002-.002c.509-.45.891-.788 1.178-1.246.368-.587.536-1.216.77-2.09l.051-.194c.034-.127.068-.245.1-.359.068-.24.13-.461.183-.71.073-.349.095-.627.063-.849a1.635 1.635 0 0 0-.05-.252 1.246 1.246 0 0 0-.045-.043c-.029-.028-.062-.057-.11-.101a13.04 13.04 0 0 1-.165-.15c-.212-.197-.43-.386-.68-.597a1.279 1.279 0 0 0-.105-.067 4.188 4.188 0 0 0-.247-.131 7.005 7.005 0 0 0-.294-.138l-.014-.005-.02-.009-.078-.031a25.591 25.591 0 0 0-.263-.105 13.588 13.588 0 0 0-.653-.24Zm6.348 18.558a.66.66 0 0 1-.007-.081 4.955 4.955 0 0 0 .36-1.253c.04-.28.061-.641-.026-.992a7.23 7.23 0 0 0-.337-1.043 18.018 18.018 0 0 0-.055-.579l-.004-.04c-.048-.46-.085-.825-.07-1.183.015-.347-.042-.72-.08-.962l-.003-.025-.011-.072a4.63 4.63 0 0 1-.033-.263L49.9 20c.177.06.372.111.505.146l.025.007.058.015c.434.116.867.197 1.254.27.073.013.144.026.212.04.2.037.488.072.779.078.147.003.315-.002.485-.024.156-.02.386-.063.614-.179.149-.076.31-.153.478-.23-.072.332-.14.642-.224.954-.075.281-.08.563-.082.706v.027a2.62 2.62 0 0 1-.01.207v.002c-.03.114-.078.308-.114.51-.027.145-.087.485-.038.793.029.184.02.424-.018.78l-.025.213v.003a9.946 9.946 0 0 0-.081.96c-.006.362-.021.719-.037 1.091v.008a43.94 43.94 0 0 0-.038 1.134c-.003.17 0 .284.001.378v.001c.002.095.003.168-.002.255l-.006.02-.029.076c-.017.05-.046.132-.07.228-.171.011-.329.021-.484.027a3.74 3.74 0 0 1-.839-.042c-.316-.061-.62-.06-.853-.053-.151.005-.244.01-.323.016h-.002c-.085.005-.157.01-.27.011a5.652 5.652 0 0 1-.32-.036 3.852 3.852 0 0 0-.308-.025 9.27 9.27 0 0 0-.088-1.915Zm2.068-10.187.118-.028a9.296 9.296 0 0 0-.004.34v.064c0 .297-.008.482-.05.637-.075.28-.133.576-.184.84l-.027.137c-.324-.062-.617-.12-.917-.2l-.144-.038c-.121-.032-.212-.056-.307-.088-.094-.032-.13-.053-.132-.054a2.286 2.286 0 0 0-.584-.326c-.097-.039-.15-.059-.187-.073l-.014-.005c.021-.035.05-.077.087-.124.052-.065.111-.13.173-.192.336-.339.89-.609 1.489-.731.206-.043.41-.092.588-.136l.095-.023Zm1.649 1.438a6.579 6.579 0 0 0-.072.298l.278-.122c.072-.032.151-.065.222-.094l.027-.01.227-.096a2.73 2.73 0 0 0 .17-.08c.031-.017.047-.027.051-.03h.001a.829.829 0 0 0 .249-.356l.01-.04.01-.042a.215.215 0 0 0 .003-.031c-.185-.29-.617-.621-1.066-.82-.004.102-.004.218-.004.36v.003c0 .278-.001.669-.106 1.06Zm-22.109 2.18.003-.006a.093.093 0 0 1-.003.007Zm14.71-10.39s.002 0 .004.006l-.002-.005-.001-.002Z"
      clip-rule="evenodd" />
    <path
      d="M24.178 10.361a1.853 1.853 0 0 0-1.164.07 4.077 4.077 0 0 0-.266.114l-.027.013a1.255 1.255 0 0 1-.121.051 4.41 4.41 0 0 0-.82.384l-.11.064c-.163.094-.269.155-.387.208-1.24.547-2.326 1.503-3.151 2.277a51.81 51.81 0 0 0-3.472 3.624l-.2.227c-.82.934-1.783 2.03-2.468 3.206-1.224 2.105-2.339 4.37-2.992 6.807-.014.05-.03.11-.05.175v.001c-.1.347-.252.875-.255 1.41a3.983 3.983 0 0 1-.112.986c-.059.221-.096.44-.125.607l-.003.02a4.987 4.987 0 0 1-.088.437 1.892 1.892 0 0 0-.06.403c-.005.098-.003.19-.002.244v.008l.002.082a1.094 1.094 0 0 0 2.124.518 1.88 1.88 0 0 0 .06-.402 3.474 3.474 0 0 0 .001-.241v-.01a2.97 2.97 0 0 1-.001-.078c.054-.211.09-.415.117-.574v-.003l.002-.013c.033-.188.055-.315.087-.431.14-.526.183-1.066.186-1.54 0-.208.05-.385.14-.708l.005-.014.085-.311c.582-2.173 1.592-4.248 2.77-6.273.572-.984 1.398-1.924 2.251-2.896l.171-.195a49.62 49.62 0 0 1 3.324-3.47c.82-.77 1.67-1.49 2.537-1.872.238-.105.464-.236.626-.33l.078-.046c.188-.108.306-.168.416-.204.145-.048.27-.105.35-.141l.033-.016.065-.03a1.094 1.094 0 0 0 .444-2.138ZM57.99 22.04c.157-.583.757-.93 1.34-.773.516.138.842.523.97.678.067.08.133.167.179.228l.024.032.062.08.023.026c.297.311.549.668.743.945l.133.187.015.02c.335.462.671.926.972 1.537.066.133.139.275.215.425.225.442.481.944.676 1.442 1.06 2.703 1.474 5.507 1.45 8.297a28.033 28.033 0 0 1-1.148 7.741c-.33 1.126-.853 2.2-1.319 3.16l-.15.309a1.094 1.094 0 1 1-1.97-.952c.05-.1.098-.2.145-.3h.001c.478-.986.918-1.893 1.194-2.833a25.845 25.845 0 0 0 1.06-7.144c.022-2.56-.359-5.08-1.3-7.48a12.88 12.88 0 0 0-.543-1.156v-.001c-.087-.17-.178-.348-.273-.542-.212-.43-.447-.759-.796-1.24a29.683 29.683 0 0 1-.203-.283v-.002l-.001-.001c-.179-.252-.308-.435-.484-.619a3.455 3.455 0 0 1-.24-.289l-.04-.052a4.107 4.107 0 0 0-.109-.139l-.017-.02a1.094 1.094 0 0 1-.608-1.28Z" />
    <path fill-rule="evenodd"
      d="M5.109 37.02c.051-.03 1.878-.192 4.064-.346 2.176-.17 4.005-.289 4.063-.288.054.015.191.53.307 1.126.363 1.837.05 3.057-.935 3.706-.656.448-1.832.51-2.652.16-.546-.234-.573-.241-1.172.265-.638.54-1.354.724-2.044.54-.92-.247-1.344-.825-1.596-2.211-.175-.916-.19-2.863-.035-2.952Zm5.665 2.765c.42.112.716-.127.803-.67.038-.25.028-.484-.049-.52-.192-.095-1.379.008-1.412.13-.072.27.375.984.659 1.06Zm-3.888-.419c.088.864 1.293.854 1.433.007.067-.358.008-.461-.255-.56-.385-.133-1.136-.088-1.18.074-.018.068-.018.285.002.48Z"
      clip-rule="evenodd" />
    <path
      d="M55.757 48.244c-1.036.244-2.183 1.386-2.454 2.4-.23.91.256 2.287 1.025 2.826.946.688 2.07.554 3.103-.328.792-.687 1.26-.808 1.674-.407.455.412-.006 1.158-.628.991-.23-.061-.395.069-.784.602-.643.886-.699 1.146-.309 1.367.583.315 1.307.263 2.098-.148.96-.497 1.493-1.137 1.757-2.066.22-.825.129-1.4-.309-2.04-.965-1.374-2.834-1.484-4.241-.237-.555.503-.848.57-1.15.286-.488-.45-.056-1.088.624-.92.325.087.441.031.772-.446.759-1.1.784-1.195.354-1.484-.477-.331-1.126-.505-1.532-.396ZM48.07 55.678c.183-.198 2.44-2.187 3.463-3.03.097-.09.254-.134.335-.112.243.065 1.057 1.138 1.003 1.34-.025.096-.523.6-1.095 1.113l-1.048.937.307.474c.358.56.631.676.83.367.087-.107.304-.324.49-.477l.344-.256.566.644c.31.359.552.7.541.74-.01.04-.249.28-.514.514l-.49.42.345.498c.19.268.413.516.494.538.081.022.665-.373 1.309-.881.63-.513 1.214-.907 1.281-.889.081.022.304.328.529.678l.39.655-1.53 1.272c-.84.702-1.75 1.444-2.004 1.637l-.488.362-1.64-1.889c-.909-1.04-2.094-2.46-2.65-3.145-.934-1.163-.99-1.28-.769-1.51Z" />
    <path fill-rule="evenodd"
      d="M12.838 43.714c-2.164.232-6.67.981-6.784 1.14-.063.07.018.526.176 1.017.307.967.307.967 1.678.77 1.022-.133 1.016.213-.019.936-.391.272-.736.585-.765.694-.062.23.41 1.66.559 1.7.135.036 6.567-3.791 7.07-4.207l.35-.283-.337-.902c-.185-.5-.416-.938-.497-.96-.098-.011-.734.036-1.431.095Zm-1.71 2.325c-.805.407-1.06.44-1.079.131-.002-.102 1.613-.611 1.847-.563.04.01-.303.209-.768.432ZM43.804 52.882c.206-.177.617-.357.907-.41.28-.07.635-.047.773.034.4.237.608.815.442 1.22-.152.35-.043.539.362.647.108.03.334.162.519.284.315.23.311.243-.005.448-.316.206-.617.14-1.214-.281-.222-.147-.215-.116-.019.285l.244.442-.38.23-.378.219-1.623-2.812.372-.306Zm.799.75c.199.285.558.135.52-.209-.036-.3-.212-.346-.48-.157-.158.102-.166.187-.04.366Z"
      clip-rule="evenodd" />
    <path
      d="M19.045 46.784c-.96.555-1.434.645-.988.17.162-.173.168-.302.01-.577-.248-.428-.357-.4-.835.14-.326.405-.34.459-.22.824.07.222.27.507.433.653.415.343 1.152.134 2.286-.634.848-.57.886-.603.68-.862-.106-.144-.23-.279-.27-.29-.04-.01-.53.25-1.096.576ZM42.642 54.948c-.383-1.059-.376-1.086-.06-1.291l.316-.205.214.39c.287.498.775 2.194.706 2.45-.026.095-.274.319-.562.473-.398.242-.609.272-.936.14-.368-.141-.49-.334-.87-1.406-.366-1.012-.413-1.27-.234-1.397.374-.261.535-.103.856.81.383 1.059.554 1.337.777 1.208.12-.07.029-.485-.207-1.172Z" />
    <path fill-rule="evenodd"
      d="M20.077 47.959c-.803.51-1.508 1.248-1.487 1.601.019.31.594 1.03.892 1.109.405.109 2.236-1.154 2.367-1.641.029-.108-.074-.426-.233-.7-.386-.669-.876-.786-1.539-.37Zm.94.715c.027.327-1.102 1.242-1.413 1.158-.351-.094-.25-.415.253-.889.583-.554 1.122-.67 1.16-.269Z"
      clip-rule="evenodd" />
    <path
      d="M21.339 50.877c.373-.582.79-1.165.932-1.316.2-.207.276-.216.463-.05.291.267.276.32-.275 1.028-.243.312-.431.58-.412.614.02.035.34-.184.722-.473.674-.515.691-.525.961-.235.253.3.25.313-.056.535-.743.555-2.405 1.617-2.5 1.592-.053-.015-.187-.166-.3-.341l-.222-.306.687-1.048Z" />
    <path fill-rule="evenodd"
      d="m13.34 49.383-.027.018-1.221.883c-1.344.959-2.589 1.872-2.775 2.025l-.327.303.454.63c.575.777.97 1.143 1.13 1.027.07-.04.49-.362.933-.721.44-.346.818-.564.823-.476.006.089-.258.641-.581 1.25-.336.606-.61 1.142-.628 1.21-.03.107 1.165 1.761 1.3 1.797.15.04 1.415-2.737 1.644-3.589.032-.122.103-.117.264.042.394.367 1.444.56 2.112.392.873-.23 1.378-.761 1.628-1.694.25-.933.11-1.71-.508-2.702-.41-.69-1.548-2.067-1.75-2.121-.041-.011-.353.18-.68.426-.234.175-.942.686-1.79 1.298l-.002.002Zm2.636 1.39c.274.436.196.836-.21 1.104-.384.245-.705.145-1.036-.35l-.272-.392.513-.399c.606-.475.69-.467 1.005.038Z"
      clip-rule="evenodd" />
    <path
      d="M38.629 55.104c.094-.352.211-.465.634-.584.27-.087.614-.125.749-.09.243.066.651.654.593.87-.05.19-.472.193-.811 0-.253-.14-.318-.114-.383.13-.116.432.188 1.514.443 1.538.329.016.44-.288.142-.367-.392-.105-.376-.492.041-.642.578-.207.782-.05.866.61.065.567.047.635-.226.895-.42.38-.989.446-1.378.167-.406-.268-.837-1.905-.67-2.527ZM24.154 51.298c-.49.535-1.632 2.36-1.542 2.457.26.273 1.504 1.04 1.63 1.002.331-.1.257-.526-.13-.76-.484-.303-.464-.863.022-.675.368.142.708-.318.434-.594-.23-.221-.146-.59.11-.52.11.028.348.165.543.304.282.191.38.203.566.05.13-.11.252-.237.266-.291.026-.095-1.364-1.076-1.607-1.141-.054-.015-.178.068-.292.168ZM35.87 55.119c.026-.095.405-.21.837-.254.956-.107 1.216-.051 1.248.262.042.33-.098.423-.7.45-.605.04-.758.449-.217.594.42.112.415.56-.005.723-.23.098-.261.162-.176.33.1.172.248.211.673.195.292-.009.55.002.56.02.007.012.011.092.017.203l.008.136c.015.265-.097.308-.903.338-.51.009-.975.014-1.042-.004-.108-.029-.387-2.669-.3-2.993Z" />
    <path fill-rule="evenodd"
      d="M45.257 57.142c-.374.045-2.527 1.048-2.783 1.298-.155.147.01.67.876 2.626 1.119 2.532 2.316 4.882 2.532 4.94.054.014.786-.282 1.618-.683l1.506-.698.18-1.053c.234-1.358.14-2.195-.37-3.433-.777-1.86-2.324-3.173-3.56-2.997Zm1.43 3.21c.486.565.649 1.202.478 1.838-.123.46-.495.766-.726.602-.064-.031-.37-.678-.697-1.404-.54-1.231-.564-1.354-.307-1.502.394-.228.775-.083 1.252.465Z"
      clip-rule="evenodd" />
    <path
      d="M25.877 53.47c.05-.19.245-.427.433-.536.755-.435 1.94.332 1.73 1.116-.116.433-.542.347-.822-.177-.145-.27-.242-.34-.38-.261-.136.08-.111.202.098.446.594.652.562 1.368-.077 1.806-.605.418-1.804-.41-1.612-1.128.08-.297.128-.313.444-.142.189.109.372.288.398.411.09.314.307.314.39.003.04-.148.005-.288-.063-.306-.284-.076-.634-.88-.54-1.232Z" />
    <path fill-rule="evenodd"
      d="M33.633 54.708c-.32 0-.352.123-.503 1.821l-.139 1.384.46.123c.636.17 1.484.035 1.577-.259.14-.412.143-.643-.008-.944-.095-.185-.082-.399.034-.614.172-.317.137-.891-.1-1.143-.133-.152-.913-.375-1.321-.368Zm.67 1.339c-.268.189-.463-.11-.258-.389.118-.17.176-.17.302.009.126.179.118.263-.044.38Zm-.066 1.112c-.036.136-.154.249-.242.254-.12.012-.158-.114-.096-.344.061-.23.158-.32.259-.264.07.062.115.22.079.354ZM17.017 56.242c1.185-1.552 2.24-2.95 2.342-3.112.223-.346.317-.32 1.372.397 1.723 1.143 2.433 2.116 2.473 3.373.041 1.576-1.483 2.777-2.998 2.37-.446-.119-.494-.103-.499.186-.066 1.49-.403 3.776-.538 3.74-.027-.007-.426-.302-.886-.643-.925-.712-.957-.807-.621-2.225.347-1.458.24-1.544-.536-.433-.675.95-.713.983-1.06.817-.192-.095-.622-.384-.943-.644-.513-.412-.586-.519-.44-.74.08-.139 1.137-1.537 2.334-3.086Zm3.552.865c.503-.257.591-.856.173-1.243-.478-.433-.55-.438-.956.106-.497.664-.49.694.017 1.019.37.244.481.26.766.118Z"
      clip-rule="evenodd" />
    <path
      d="M29.726 55.98c-.046.336.007.408.345.498.338.091.42.055.548-.259.131-.327.111-.361-.349-.484-.46-.123-.494-.104-.544.245ZM39.573 59.317c.127-.12.335-.154.648-.206l.168-.027c.94-.154 1.016-.061 1.283 1.648.339 2.25.48 4.535.324 5.174-.277 1.086-1.249 1.738-2.635 1.773-.992.024-1.829-.316-2.25-.908-.219-.32-.392-1.134-.625-3.022l-.075-.586c-.158-1.23-.308-2.395-.355-2.733l-.11-.725.804-.132c.43-.088.888-.125 1.01-.092.149.04.271.45.366 1.286.265 2.202.75 4.666.968 4.825.241.181.678.066.815-.23.06-.115-.05-1.492-.247-3.081l-.051-.412c-.217-1.733-.29-2.313-.038-2.552ZM34.084 59.35c-.549-.06-.583-.04-1.333.92-.423.552-.814.984-.855.973-.054-.015-.012-.496.086-1.078l.168-1.057-.918-.145c-.502-.076-.953-.124-.987-.105-.103.06-1.215 7.458-1.208 8.025.01.177.138.298.435.378.42.112 1.474.177 1.595.108.03-.006.107-.565.17-1.23.044-.39.08-.747.103-.98.017-.162.027-.263.03-.274.01-.04.146.372.31.895.538 1.782.578 1.85 1.472 1.974.434.058.874.09.984.06.14-.034-.02-.686-.514-2.195-.38-1.175-.679-2.226-.657-2.307.012-.098.548-.853 1.163-1.688.628-.832 1.161-1.631 1.201-1.78.076-.284-.12-.365-1.245-.493Z" />
    <path fill-rule="evenodd"
      d="M21.41 64.187c.076-.284 2.81-4.48 3.74-5.737l.928-1.245.935.352.225.086c.41.155.724.274.73.3.076.093-.688 4.353-1.121 6.295l-.486 2.189-.54-.145c-.298-.08-.713-.263-.907-.403-.356-.24-.369-.301-.21-1.215.125-.793.114-.97-.089-1.024-.162-.044-.407.166-.792.686-.345.473-.651.753-.794.744-.414-.024-1.662-.72-1.619-.883Zm3.766-1.991c.149.04.282-.185.535-.915.182-.516.319-.972.299-1.007-.02-.034-.18.242-.37.626-.114.208-.233.438-.33.625-.075.143-.136.262-.172.327-.112.202-.11.304.038.344Z"
      clip-rule="evenodd" />
  </g>
</svg>